<?xml version="1.0" standalone="no"?><!DOCTYPE svg PUBLIC "-//W3C//DTD SVG 1.1//EN" "http://www.w3.org/Graphics/SVG/1.1/DTD/svg11.dtd"><svg t="1521605590451" class="icon" style="" viewBox="0 0 1024 1024" version="1.1" xmlns="http://www.w3.org/2000/svg" p-id="3109" xmlns:xlink="http://www.w3.org/1999/xlink" width="200" height="200"><defs><style type="text/css"></style></defs><path d="M56.888889 512c17.066667-221.866667 199.111111-398.222222 426.666667-398.222222s409.6 176.355556 426.666666 398.222222h56.888889c-17.066667-256-227.555556-455.111111-483.555555-455.111111S17.066667 256 0 512h56.888889zM910.222222 568.888889c-17.066667 221.866667-199.111111 398.222222-426.666666 398.222222S73.955556 790.755556 56.888889 568.888889H0c17.066667 256 221.866667 455.111111 483.555556 455.111111s466.488889-199.111111 483.555555-455.111111h-56.888889z" fill="#fff" p-id="3110"></path><path d="M512 625.777778V512h170.666667V455.111111H551.822222l142.222222-142.222222-39.822222-39.822222-170.666666 170.666666-170.666667-170.666666-39.822222 39.822222L415.288889 455.111111H284.444444v56.888889h170.666667v113.777778H284.444444v56.888889h170.666667v170.666666h56.888889v-170.666666h170.666667v-56.888889zM910.222222 170.666667h56.888889v341.333333h-56.888889zM0 568.888889h56.888889v341.333333H0z" fill="#fff" p-id="3111"></path></svg>
